<?xml version="1.0" encoding="UTF-8"?>
<svg xmlns="http://www.w3.org/2000/svg" xmlns:xlink="http://www.w3.org/1999/xlink" width="16px" height="16px" viewBox="0 0 16 16" version="1.1">
<defs>
<filter id="alpha" filterUnits="objectBoundingBox" x="0%" y="0%" width="100%" height="100%">
  <feColorMatrix type="matrix" in="SourceGraphic" values="0 0 0 0 1 0 0 0 0 1 0 0 0 0 1 0 0 0 1 0"/>
</filter>
<mask id="mask0">
  <g filter="url(#alpha)">
<rect x="0" y="0" width="16" height="16" style="fill:rgb(0%,0%,0%);fill-opacity:0.996078;stroke:none;"/>
  </g>
</mask>
<clipPath id="clip1">
  <rect x="0" y="0" width="16" height="16"/>
</clipPath>
<g id="surface5" clip-path="url(#clip1)">
<path style=" stroke:none;fill-rule:evenodd;fill:rgb(15.294118%,93.333333%,62.352941%);fill-opacity:1;" d="M 2.359375 0.703125 C 2.777344 0.703125 3.191406 0.703125 3.609375 0.703125 C 3.609375 0.878906 3.609375 1.058594 3.609375 1.234375 C 4.027344 1.234375 4.441406 1.234375 4.859375 1.234375 C 4.859375 1.058594 4.859375 0.878906 4.859375 0.703125 C 5.277344 0.703125 5.691406 0.703125 6.109375 0.703125 C 6.109375 0.878906 6.109375 1.058594 6.109375 1.234375 C 7.359375 1.234375 8.609375 1.234375 9.859375 1.234375 C 9.859375 1.058594 9.859375 0.878906 9.859375 0.703125 C 10.277344 0.703125 10.691406 0.703125 11.109375 0.703125 C 11.109375 0.878906 11.109375 1.058594 11.109375 1.234375 C 11.527344 1.234375 11.941406 1.234375 12.359375 1.234375 C 12.359375 1.058594 12.359375 0.878906 12.359375 0.703125 C 12.777344 0.703125 13.191406 0.703125 13.609375 0.703125 C 13.609375 0.878906 13.609375 1.058594 13.609375 1.234375 C 14 1.210938 14.386719 1.242188 14.765625 1.328125 C 10.238281 1.359375 5.707031 1.371094 1.171875 1.359375 C 1.277344 1.308594 1.394531 1.273438 1.515625 1.25 C 1.796875 1.234375 2.078125 1.230469 2.359375 1.234375 C 2.359375 1.058594 2.359375 0.878906 2.359375 0.703125 Z M 2.359375 0.703125 "/>
</g>
<mask id="mask1">
  <g filter="url(#alpha)">
<rect x="0" y="0" width="16" height="16" style="fill:rgb(0%,0%,0%);fill-opacity:0.996078;stroke:none;"/>
  </g>
</mask>
<clipPath id="clip2">
  <rect x="0" y="0" width="16" height="16"/>
</clipPath>
<g id="surface8" clip-path="url(#clip2)">
<path style=" stroke:none;fill-rule:evenodd;fill:rgb(14.901961%,92.54902%,63.137255%);fill-opacity:1;" d="M 14.765625 1.328125 C 14.992188 1.414062 15.1875 1.539062 15.359375 1.703125 C 10.441406 1.703125 5.527344 1.703125 0.609375 1.703125 C 0.765625 1.542969 0.953125 1.425781 1.171875 1.359375 C 5.707031 1.371094 10.238281 1.359375 14.765625 1.328125 Z M 14.765625 1.328125 "/>
</g>
<mask id="mask2">
  <g filter="url(#alpha)">
<rect x="0" y="0" width="16" height="16" style="fill:rgb(0%,0%,0%);fill-opacity:0.996078;stroke:none;"/>
  </g>
</mask>
<clipPath id="clip3">
  <rect x="0" y="0" width="16" height="16"/>
</clipPath>
<g id="surface11" clip-path="url(#clip3)">
<path style=" stroke:none;fill-rule:evenodd;fill:rgb(14.117647%,91.372549%,64.705882%);fill-opacity:1;" d="M 0.609375 1.703125 C 5.527344 1.703125 10.441406 1.703125 15.359375 1.703125 C 15.597656 1.890625 15.765625 2.128906 15.859375 2.421875 C 10.609375 2.464844 5.359375 2.464844 0.109375 2.421875 C 0.203125 2.128906 0.371094 1.890625 0.609375 1.703125 Z M 0.609375 1.703125 "/>
</g>
<mask id="mask3">
  <g filter="url(#alpha)">
<rect x="0" y="0" width="16" height="16" style="fill:rgb(0%,0%,0%);fill-opacity:0.996078;stroke:none;"/>
  </g>
</mask>
<clipPath id="clip4">
  <rect x="0" y="0" width="16" height="16"/>
</clipPath>
<g id="surface14" clip-path="url(#clip4)">
<path style=" stroke:none;fill-rule:evenodd;fill:rgb(13.72549%,90.196078%,65.490196%);fill-opacity:1;" d="M 0.109375 2.421875 C 5.359375 2.464844 10.609375 2.464844 15.859375 2.421875 C 15.898438 2.476562 15.917969 2.539062 15.921875 2.609375 C 15.441406 2.609375 14.964844 2.609375 14.484375 2.609375 C 14.203125 2.5 13.914062 2.457031 13.609375 2.484375 C 13.609375 2.527344 13.609375 2.566406 13.609375 2.609375 C 13.191406 2.609375 12.777344 2.609375 12.359375 2.609375 C 12.359375 2.566406 12.359375 2.527344 12.359375 2.484375 C 11.941406 2.484375 11.527344 2.484375 11.109375 2.484375 C 11.109375 2.527344 11.109375 2.566406 11.109375 2.609375 C 10.691406 2.609375 10.277344 2.609375 9.859375 2.609375 C 9.859375 2.566406 9.859375 2.527344 9.859375 2.484375 C 8.609375 2.484375 7.359375 2.484375 6.109375 2.484375 C 6.109375 2.527344 6.109375 2.566406 6.109375 2.609375 C 5.691406 2.609375 5.277344 2.609375 4.859375 2.609375 C 4.859375 2.566406 4.859375 2.527344 4.859375 2.484375 C 4.441406 2.484375 4.027344 2.484375 3.609375 2.484375 C 3.609375 2.527344 3.609375 2.566406 3.609375 2.609375 C 3.191406 2.609375 2.777344 2.609375 2.359375 2.609375 C 2.359375 2.566406 2.359375 2.527344 2.359375 2.484375 C 2.054688 2.457031 1.765625 2.5 1.484375 2.609375 C 1.003906 2.609375 0.527344 2.609375 0.046875 2.609375 C 0.0507812 2.539062 0.0703125 2.476562 0.109375 2.421875 Z M 0.109375 2.421875 "/>
</g>
<mask id="mask4">
  <g filter="url(#alpha)">
<rect x="0" y="0" width="16" height="16" style="fill:rgb(0%,0%,0%);fill-opacity:0.992157;stroke:none;"/>
  </g>
</mask>
<clipPath id="clip5">
  <rect x="0" y="0" width="16" height="16"/>
</clipPath>
<g id="surface17" clip-path="url(#clip5)">
<path style=" stroke:none;fill-rule:evenodd;fill:rgb(13.333333%,89.411765%,67.058824%);fill-opacity:1;" d="M 0.046875 2.609375 C 0.527344 2.609375 1.003906 2.609375 1.484375 2.609375 C 1.394531 2.695312 1.324219 2.800781 1.28125 2.921875 C 1.242188 3.128906 1.226562 3.335938 1.234375 3.546875 C 0.816406 3.546875 0.402344 3.546875 -0.015625 3.546875 C -0.015625 3.285156 -0.015625 3.027344 -0.015625 2.765625 C 0.00390625 2.714844 0.0273438 2.660156 0.046875 2.609375 Z M 0.046875 2.609375 "/>
</g>
<mask id="mask5">
  <g filter="url(#alpha)">
<rect x="0" y="0" width="16" height="16" style="fill:rgb(0%,0%,0%);fill-opacity:0.992157;stroke:none;"/>
  </g>
</mask>
<clipPath id="clip6">
  <rect x="0" y="0" width="16" height="16"/>
</clipPath>
<g id="surface20" clip-path="url(#clip6)">
<path style=" stroke:none;fill-rule:evenodd;fill:rgb(13.333333%,89.411765%,67.058824%);fill-opacity:1;" d="M 14.484375 2.609375 C 14.964844 2.609375 15.441406 2.609375 15.921875 2.609375 C 15.9375 2.664062 15.960938 2.71875 15.984375 2.765625 C 15.984375 3.027344 15.984375 3.285156 15.984375 3.546875 C 15.566406 3.546875 15.152344 3.546875 14.734375 3.546875 C 14.742188 3.335938 14.726562 3.128906 14.6875 2.921875 C 14.644531 2.800781 14.574219 2.695312 14.484375 2.609375 Z M 14.484375 2.609375 "/>
</g>
<mask id="mask6">
  <g filter="url(#alpha)">
<rect x="0" y="0" width="16" height="16" style="fill:rgb(0%,0%,0%);fill-opacity:0.976471;stroke:none;"/>
  </g>
</mask>
<clipPath id="clip7">
  <rect x="0" y="0" width="16" height="16"/>
</clipPath>
<g id="surface23" clip-path="url(#clip7)">
<path style=" stroke:none;fill-rule:evenodd;fill:rgb(8.627451%,80.392157%,77.647059%);fill-opacity:1;" d="M 13.546875 7.515625 C 13.175781 7.527344 12.8125 7.515625 12.453125 7.484375 C 12.617188 7.296875 12.796875 7.121094 12.984375 6.953125 C 13.183594 7.132812 13.371094 7.320312 13.546875 7.515625 Z M 13.546875 7.515625 "/>
</g>
<mask id="mask7">
  <g filter="url(#alpha)">
<rect x="0" y="0" width="16" height="16" style="fill:rgb(0%,0%,0%);fill-opacity:0.992157;stroke:none;"/>
  </g>
</mask>
<clipPath id="clip8">
  <rect x="0" y="0" width="16" height="16"/>
</clipPath>
<g id="surface26" clip-path="url(#clip8)">
<path style=" stroke:none;fill-rule:evenodd;fill:rgb(8.235294%,78.823529%,79.215686%);fill-opacity:1;" d="M 12.453125 7.484375 C 12.8125 7.515625 13.175781 7.527344 13.546875 7.515625 C 13.671875 7.617188 13.785156 7.734375 13.890625 7.859375 C 13.734375 8.039062 13.566406 8.203125 13.390625 8.359375 C 12.785156 8.359375 12.183594 8.359375 11.578125 8.359375 C 11.859375 8.058594 12.152344 7.765625 12.453125 7.484375 Z M 12.453125 7.484375 "/>
</g>
<mask id="mask8">
  <g filter="url(#alpha)">
<rect x="0" y="0" width="16" height="16" style="fill:rgb(0%,0%,0%);fill-opacity:0.996078;stroke:none;"/>
  </g>
</mask>
<clipPath id="clip9">
  <rect x="0" y="0" width="16" height="16"/>
</clipPath>
<g id="surface29" clip-path="url(#clip9)">
<path style=" stroke:none;fill-rule:evenodd;fill:rgb(7.45098%,77.254902%,80.784314%);fill-opacity:1;" d="M 11.578125 8.359375 C 12.183594 8.359375 12.785156 8.359375 13.390625 8.359375 C 13.214844 8.558594 13.027344 8.746094 12.828125 8.921875 C 11.808594 8.921875 10.785156 8.921875 9.765625 8.921875 C 9.992188 8.671875 10.234375 8.433594 10.484375 8.203125 C 10.691406 8.402344 10.902344 8.597656 11.109375 8.796875 C 11.265625 8.648438 11.421875 8.503906 11.578125 8.359375 Z M 11.578125 8.359375 "/>
</g>
<mask id="mask9">
  <g filter="url(#alpha)">
<rect x="0" y="0" width="16" height="16" style="fill:rgb(0%,0%,0%);fill-opacity:0.992157;stroke:none;"/>
  </g>
</mask>
<clipPath id="clip10">
  <rect x="0" y="0" width="16" height="16"/>
</clipPath>
<g id="surface32" clip-path="url(#clip10)">
<path style=" stroke:none;fill-rule:evenodd;fill:rgb(6.666667%,76.078431%,82.352941%);fill-opacity:1;" d="M 9.765625 8.921875 C 10.785156 8.921875 11.808594 8.921875 12.828125 8.921875 C 12.621094 9.152344 12.402344 9.371094 12.171875 9.578125 C 11.46875 9.566406 10.769531 9.578125 10.078125 9.609375 C 9.902344 9.453125 9.734375 9.289062 9.578125 9.109375 C 9.632812 9.035156 9.695312 8.972656 9.765625 8.921875 Z M 9.765625 8.921875 "/>
</g>
<mask id="mask10">
  <g filter="url(#alpha)">
<rect x="0" y="0" width="16" height="16" style="fill:rgb(0%,0%,0%);fill-opacity:0.984314;stroke:none;"/>
  </g>
</mask>
<clipPath id="clip11">
  <rect x="0" y="0" width="16" height="16"/>
</clipPath>
<g id="surface35" clip-path="url(#clip11)">
<path style=" stroke:none;fill-rule:evenodd;fill:rgb(6.27451%,74.509804%,83.921569%);fill-opacity:1;" d="M 12.171875 9.578125 C 11.828125 9.941406 11.476562 10.296875 11.109375 10.640625 C 10.753906 10.304688 10.410156 9.960938 10.078125 9.609375 C 10.769531 9.578125 11.46875 9.566406 12.171875 9.578125 Z M 12.171875 9.578125 "/>
</g>
<mask id="mask11">
  <g filter="url(#alpha)">
<rect x="0" y="0" width="16" height="16" style="fill:rgb(0%,0%,0%);fill-opacity:0.996078;stroke:none;"/>
  </g>
</mask>
<clipPath id="clip12">
  <rect x="0" y="0" width="16" height="16"/>
</clipPath>
<g id="surface38" clip-path="url(#clip12)">
<path style=" stroke:none;fill-rule:evenodd;fill:rgb(5.098039%,72.54902%,86.666667%);fill-opacity:1;" d="M 14.734375 10.515625 C 15.152344 10.515625 15.566406 10.515625 15.984375 10.515625 C 15.984375 10.753906 15.984375 10.996094 15.984375 11.234375 C 14.628906 11.234375 13.277344 11.234375 11.921875 11.234375 C 12.097656 11.109375 12.296875 11.03125 12.515625 11 C 13.253906 10.984375 13.996094 10.980469 14.734375 10.984375 C 14.734375 10.828125 14.734375 10.671875 14.734375 10.515625 Z M 14.734375 10.515625 "/>
</g>
<mask id="mask12">
  <g filter="url(#alpha)">
<rect x="0" y="0" width="16" height="16" style="fill:rgb(0%,0%,0%);fill-opacity:0.996078;stroke:none;"/>
  </g>
</mask>
<clipPath id="clip13">
  <rect x="0" y="0" width="16" height="16"/>
</clipPath>
<g id="surface41" clip-path="url(#clip13)">
<path style=" stroke:none;fill-rule:evenodd;fill:rgb(4.313725%,71.372549%,87.843137%);fill-opacity:1;" d="M 11.921875 11.234375 C 13.277344 11.234375 14.628906 11.234375 15.984375 11.234375 C 15.984375 11.378906 15.984375 11.527344 15.984375 11.671875 C 14.453125 11.671875 12.921875 11.671875 11.390625 11.671875 C 11.53125 11.480469 11.707031 11.332031 11.921875 11.234375 Z M 11.921875 11.234375 "/>
</g>
<mask id="mask13">
  <g filter="url(#alpha)">
<rect x="0" y="0" width="16" height="16" style="fill:rgb(0%,0%,0%);fill-opacity:0.992157;stroke:none;"/>
  </g>
</mask>
<clipPath id="clip14">
  <rect x="0" y="0" width="16" height="16"/>
</clipPath>
<g id="surface44" clip-path="url(#clip14)">
<path style=" stroke:none;fill-rule:evenodd;fill:rgb(3.921569%,70.196078%,89.411765%);fill-opacity:1;" d="M 11.390625 11.671875 C 12.921875 11.671875 14.453125 11.671875 15.984375 11.671875 C 15.984375 11.753906 15.984375 11.839844 15.984375 11.921875 C 15.753906 12.140625 15.527344 12.359375 15.296875 12.578125 C 14.691406 12.578125 14.089844 12.578125 13.484375 12.578125 C 13.582031 12.464844 13.6875 12.355469 13.796875 12.25 C 13.421875 12.222656 13.046875 12.234375 12.671875 12.28125 C 12.5 12.34375 12.375 12.453125 12.296875 12.609375 C 11.863281 12.578125 11.425781 12.566406 10.984375 12.578125 C 11.042969 12.238281 11.179688 11.9375 11.390625 11.671875 Z M 11.390625 11.671875 "/>
</g>
<mask id="mask14">
  <g filter="url(#alpha)">
<rect x="0" y="0" width="16" height="16" style="fill:rgb(0%,0%,0%);fill-opacity:0.988235;stroke:none;"/>
  </g>
</mask>
<clipPath id="clip15">
  <rect x="0" y="0" width="16" height="16"/>
</clipPath>
<g id="surface47" clip-path="url(#clip15)">
<path style=" stroke:none;fill-rule:evenodd;fill:rgb(3.137255%,68.627451%,90.980392%);fill-opacity:1;" d="M 10.984375 12.578125 C 11.425781 12.566406 11.863281 12.578125 12.296875 12.609375 C 12.273438 12.722656 12.25 12.835938 12.234375 12.953125 C 11.816406 12.953125 11.402344 12.953125 10.984375 12.953125 C 10.984375 12.828125 10.984375 12.703125 10.984375 12.578125 Z M 10.984375 12.578125 "/>
</g>
<mask id="mask15">
  <g filter="url(#alpha)">
<rect x="0" y="0" width="16" height="16" style="fill:rgb(0%,0%,0%);fill-opacity:0.992157;stroke:none;"/>
  </g>
</mask>
<clipPath id="clip16">
  <rect x="0" y="0" width="16" height="16"/>
</clipPath>
<g id="surface50" clip-path="url(#clip16)">
<path style=" stroke:none;fill-rule:evenodd;fill:rgb(3.137255%,68.627451%,90.980392%);fill-opacity:1;" d="M 13.484375 12.578125 C 14.089844 12.578125 14.691406 12.578125 15.296875 12.578125 C 15.183594 12.714844 15.058594 12.839844 14.921875 12.953125 C 14.316406 12.953125 13.714844 12.953125 13.109375 12.953125 C 13.222656 12.816406 13.347656 12.691406 13.484375 12.578125 Z M 13.484375 12.578125 "/>
</g>
<mask id="mask16">
  <g filter="url(#alpha)">
<rect x="0" y="0" width="16" height="16" style="fill:rgb(0%,0%,0%);fill-opacity:0.992157;stroke:none;"/>
  </g>
</mask>
<clipPath id="clip17">
  <rect x="0" y="0" width="16" height="16"/>
</clipPath>
<g id="surface53" clip-path="url(#clip17)">
<path style=" stroke:none;fill-rule:evenodd;fill:rgb(2.745098%,67.843137%,92.156863%);fill-opacity:1;" d="M 13.109375 12.953125 C 13.714844 12.953125 14.316406 12.953125 14.921875 12.953125 C 14.734375 13.160156 14.535156 13.359375 14.328125 13.546875 C 13.75 13.511719 13.167969 13.503906 12.578125 13.53125 C 12.527344 13.597656 12.464844 13.644531 12.390625 13.671875 C 12.621094 13.421875 12.859375 13.183594 13.109375 12.953125 Z M 13.109375 12.953125 "/>
</g>
<mask id="mask17">
  <g filter="url(#alpha)">
<rect x="0" y="0" width="16" height="16" style="fill:rgb(0%,0%,0%);fill-opacity:0.996078;stroke:none;"/>
  </g>
</mask>
<clipPath id="clip18">
  <rect x="0" y="0" width="16" height="16"/>
</clipPath>
<g id="surface56" clip-path="url(#clip18)">
<path style=" stroke:none;fill-rule:evenodd;fill:rgb(1.960784%,66.27451%,93.72549%);fill-opacity:1;" d="M 10.984375 13.515625 C 11.402344 13.515625 11.816406 13.515625 12.234375 13.515625 C 12.230469 13.609375 12.234375 13.703125 12.25 13.796875 C 12.292969 13.75 12.339844 13.707031 12.390625 13.671875 C 12.464844 13.644531 12.527344 13.597656 12.578125 13.53125 C 13.167969 13.503906 13.75 13.511719 14.328125 13.546875 C 14.160156 13.734375 13.984375 13.910156 13.796875 14.078125 C 12.863281 14.046875 11.925781 14.035156 10.984375 14.046875 C 10.984375 13.871094 10.984375 13.691406 10.984375 13.515625 Z M 10.984375 13.515625 "/>
</g>
<mask id="mask18">
  <g filter="url(#alpha)">
<rect x="0" y="0" width="16" height="16" style="fill:rgb(0%,0%,0%);fill-opacity:0.988235;stroke:none;"/>
  </g>
</mask>
<clipPath id="clip19">
  <rect x="0" y="0" width="16" height="16"/>
</clipPath>
<g id="surface59" clip-path="url(#clip19)">
<path style=" stroke:none;fill-rule:evenodd;fill:rgb(1.568627%,65.490196%,94.901961%);fill-opacity:1;" d="M -0.015625 14.046875 C 0.402344 14.046875 0.816406 14.046875 1.234375 14.046875 C 1.25 14.199219 1.292969 14.347656 1.359375 14.484375 C 0.910156 14.484375 0.464844 14.484375 0.015625 14.484375 C 0.015625 14.464844 0.00390625 14.453125 -0.015625 14.453125 C -0.015625 14.316406 -0.015625 14.183594 -0.015625 14.046875 Z M -0.015625 14.046875 "/>
</g>
<mask id="mask19">
  <g filter="url(#alpha)">
<rect x="0" y="0" width="16" height="16" style="fill:rgb(0%,0%,0%);fill-opacity:0.996078;stroke:none;"/>
  </g>
</mask>
<clipPath id="clip20">
  <rect x="0" y="0" width="16" height="16"/>
</clipPath>
<g id="surface62" clip-path="url(#clip20)">
<path style=" stroke:none;fill-rule:evenodd;fill:rgb(1.568627%,65.490196%,94.509804%);fill-opacity:1;" d="M 10.984375 14.046875 C 11.925781 14.035156 12.863281 14.046875 13.796875 14.078125 C 13.660156 14.234375 13.515625 14.378906 13.359375 14.515625 C 12.574219 14.484375 11.78125 14.472656 10.984375 14.484375 C 10.984375 14.339844 10.984375 14.191406 10.984375 14.046875 Z M 10.984375 14.046875 "/>
</g>
<mask id="mask20">
  <g filter="url(#alpha)">
<rect x="0" y="0" width="16" height="16" style="fill:rgb(0%,0%,0%);fill-opacity:0.996078;stroke:none;"/>
  </g>
</mask>
<clipPath id="clip21">
  <rect x="0" y="0" width="16" height="16"/>
</clipPath>
<g id="surface65" clip-path="url(#clip21)">
<path style=" stroke:none;fill-rule:evenodd;fill:rgb(0.784314%,64.313725%,96.470588%);fill-opacity:1;" d="M 0.015625 14.484375 C 0.464844 14.484375 0.910156 14.484375 1.359375 14.484375 C 1.496094 14.621094 1.664062 14.699219 1.859375 14.71875 C 4.902344 14.734375 7.941406 14.738281 10.984375 14.734375 C 10.984375 14.652344 10.984375 14.566406 10.984375 14.484375 C 11.78125 14.472656 12.574219 14.484375 13.359375 14.515625 C 13.140625 14.753906 12.910156 14.984375 12.671875 15.203125 C 8.558594 15.160156 4.441406 15.160156 0.328125 15.203125 C 0.164062 14.992188 0.0625 14.753906 0.015625 14.484375 Z M 0.015625 14.484375 "/>
</g>
<mask id="mask21">
  <g filter="url(#alpha)">
<rect x="0" y="0" width="16" height="16" style="fill:rgb(0%,0%,0%);fill-opacity:0.996078;stroke:none;"/>
  </g>
</mask>
<clipPath id="clip22">
  <rect x="0" y="0" width="16" height="16"/>
</clipPath>
<g id="surface68" clip-path="url(#clip22)">
<path style=" stroke:none;fill-rule:evenodd;fill:rgb(0.784314%,63.137255%,97.254902%);fill-opacity:1;" d="M 12.671875 15.203125 C 12.609375 15.285156 12.535156 15.359375 12.453125 15.421875 C 8.480469 15.410156 4.511719 15.421875 0.546875 15.453125 C 0.453125 15.390625 0.378906 15.304688 0.328125 15.203125 C 4.441406 15.160156 8.558594 15.160156 12.671875 15.203125 Z M 12.671875 15.203125 "/>
</g>
<mask id="mask22">
  <g filter="url(#alpha)">
<rect x="0" y="0" width="16" height="16" style="fill:rgb(0%,0%,0%);fill-opacity:0.996078;stroke:none;"/>
  </g>
</mask>
<clipPath id="clip23">
  <rect x="0" y="0" width="16" height="16"/>
</clipPath>
<g id="surface71" clip-path="url(#clip23)">
<path style=" stroke:none;fill-rule:evenodd;fill:rgb(0%,62.352941%,98.431373%);fill-opacity:1;" d="M 12.453125 15.421875 C 12.277344 15.609375 12.097656 15.796875 11.921875 15.984375 C 8.453125 15.984375 4.984375 15.984375 1.515625 15.984375 C 1.144531 15.898438 0.820312 15.71875 0.546875 15.453125 C 4.511719 15.421875 8.480469 15.410156 12.453125 15.421875 Z M 12.453125 15.421875 "/>
</g>
</defs>
<g id="surface1">
<path style=" stroke:none;fill-rule:evenodd;fill:rgb(15.686275%,94.901961%,60.392157%);fill-opacity:1;" d="M 2.359375 -0.015625 C 2.777344 -0.015625 3.191406 -0.015625 3.609375 -0.015625 C 3.609375 0.222656 3.609375 0.464844 3.609375 0.703125 C 3.191406 0.703125 2.777344 0.703125 2.359375 0.703125 C 2.359375 0.464844 2.359375 0.222656 2.359375 -0.015625 Z M 2.359375 -0.015625 "/>
<path style=" stroke:none;fill-rule:evenodd;fill:rgb(15.686275%,94.901961%,60.392157%);fill-opacity:1;" d="M 4.859375 -0.015625 C 5.277344 -0.015625 5.691406 -0.015625 6.109375 -0.015625 C 6.109375 0.222656 6.109375 0.464844 6.109375 0.703125 C 5.691406 0.703125 5.277344 0.703125 4.859375 0.703125 C 4.859375 0.464844 4.859375 0.222656 4.859375 -0.015625 Z M 4.859375 -0.015625 "/>
<path style=" stroke:none;fill-rule:evenodd;fill:rgb(15.686275%,94.901961%,60.392157%);fill-opacity:1;" d="M 9.859375 -0.015625 C 10.277344 -0.015625 10.691406 -0.015625 11.109375 -0.015625 C 11.109375 0.222656 11.109375 0.464844 11.109375 0.703125 C 10.691406 0.703125 10.277344 0.703125 9.859375 0.703125 C 9.859375 0.464844 9.859375 0.222656 9.859375 -0.015625 Z M 9.859375 -0.015625 "/>
<path style=" stroke:none;fill-rule:evenodd;fill:rgb(15.686275%,94.901961%,60.392157%);fill-opacity:1;" d="M 12.359375 -0.015625 C 12.777344 -0.015625 13.191406 -0.015625 13.609375 -0.015625 C 13.609375 0.222656 13.609375 0.464844 13.609375 0.703125 C 13.191406 0.703125 12.777344 0.703125 12.359375 0.703125 C 12.359375 0.464844 12.359375 0.222656 12.359375 -0.015625 Z M 12.359375 -0.015625 "/>
<use xlink:href="#surface5" mask="url(#mask0)"/>
<use xlink:href="#surface8" mask="url(#mask1)"/>
<use xlink:href="#surface11" mask="url(#mask2)"/>
<use xlink:href="#surface14" mask="url(#mask3)"/>
<use xlink:href="#surface17" mask="url(#mask4)"/>
<path style=" stroke:none;fill-rule:evenodd;fill:rgb(12.941176%,89.411765%,67.058824%);fill-opacity:1;" d="M 2.359375 2.609375 C 2.777344 2.609375 3.191406 2.609375 3.609375 2.609375 C 3.609375 2.921875 3.609375 3.234375 3.609375 3.546875 C 3.191406 3.546875 2.777344 3.546875 2.359375 3.546875 C 2.359375 3.234375 2.359375 2.921875 2.359375 2.609375 Z M 2.359375 2.609375 "/>
<path style=" stroke:none;fill-rule:evenodd;fill:rgb(12.941176%,89.411765%,67.058824%);fill-opacity:1;" d="M 4.859375 2.609375 C 5.277344 2.609375 5.691406 2.609375 6.109375 2.609375 C 6.109375 2.921875 6.109375 3.234375 6.109375 3.546875 C 5.691406 3.546875 5.277344 3.546875 4.859375 3.546875 C 4.859375 3.234375 4.859375 2.921875 4.859375 2.609375 Z M 4.859375 2.609375 "/>
<path style=" stroke:none;fill-rule:evenodd;fill:rgb(12.941176%,89.411765%,67.058824%);fill-opacity:1;" d="M 9.859375 2.609375 C 10.277344 2.609375 10.691406 2.609375 11.109375 2.609375 C 11.109375 2.921875 11.109375 3.234375 11.109375 3.546875 C 10.691406 3.546875 10.277344 3.546875 9.859375 3.546875 C 9.859375 3.234375 9.859375 2.921875 9.859375 2.609375 Z M 9.859375 2.609375 "/>
<path style=" stroke:none;fill-rule:evenodd;fill:rgb(12.941176%,89.411765%,67.058824%);fill-opacity:1;" d="M 12.359375 2.609375 C 12.777344 2.609375 13.191406 2.609375 13.609375 2.609375 C 13.609375 2.921875 13.609375 3.234375 13.609375 3.546875 C 13.191406 3.546875 12.777344 3.546875 12.359375 3.546875 C 12.359375 3.234375 12.359375 2.921875 12.359375 2.609375 Z M 12.359375 2.609375 "/>
<use xlink:href="#surface20" mask="url(#mask5)"/>
<path style=" stroke:none;fill-rule:evenodd;fill:rgb(12.54902%,88.235294%,68.627451%);fill-opacity:1;" d="M 2.359375 3.546875 C 2.777344 3.546875 3.191406 3.546875 3.609375 3.546875 C 3.609375 3.609375 3.609375 3.671875 3.609375 3.734375 C 3.191406 3.734375 2.777344 3.734375 2.359375 3.734375 C 2.359375 3.671875 2.359375 3.609375 2.359375 3.546875 Z M 2.359375 3.546875 "/>
<path style=" stroke:none;fill-rule:evenodd;fill:rgb(12.54902%,88.235294%,68.627451%);fill-opacity:1;" d="M 4.859375 3.546875 C 5.277344 3.546875 5.691406 3.546875 6.109375 3.546875 C 6.109375 3.609375 6.109375 3.671875 6.109375 3.734375 C 5.691406 3.734375 5.277344 3.734375 4.859375 3.734375 C 4.859375 3.671875 4.859375 3.609375 4.859375 3.546875 Z M 4.859375 3.546875 "/>
<path style=" stroke:none;fill-rule:evenodd;fill:rgb(12.54902%,88.235294%,68.627451%);fill-opacity:1;" d="M 9.859375 3.546875 C 10.277344 3.546875 10.691406 3.546875 11.109375 3.546875 C 11.109375 3.609375 11.109375 3.671875 11.109375 3.734375 C 10.691406 3.734375 10.277344 3.734375 9.859375 3.734375 C 9.859375 3.671875 9.859375 3.609375 9.859375 3.546875 Z M 9.859375 3.546875 "/>
<path style=" stroke:none;fill-rule:evenodd;fill:rgb(12.54902%,88.235294%,68.627451%);fill-opacity:1;" d="M 12.359375 3.546875 C 12.777344 3.546875 13.191406 3.546875 13.609375 3.546875 C 13.609375 3.609375 13.609375 3.671875 13.609375 3.734375 C 13.191406 3.734375 12.777344 3.734375 12.359375 3.734375 C 12.359375 3.671875 12.359375 3.609375 12.359375 3.546875 Z M 12.359375 3.546875 "/>
<path style=" stroke:none;fill-rule:evenodd;fill:rgb(12.54902%,87.843137%,69.019608%);fill-opacity:1;" d="M -0.015625 3.546875 C 0.402344 3.546875 0.816406 3.546875 1.234375 3.546875 C 1.234375 3.691406 1.234375 3.839844 1.234375 3.984375 C 0.816406 3.984375 0.402344 3.984375 -0.015625 3.984375 C -0.015625 3.839844 -0.015625 3.691406 -0.015625 3.546875 Z M -0.015625 3.546875 "/>
<path style=" stroke:none;fill-rule:evenodd;fill:rgb(12.54902%,87.843137%,69.019608%);fill-opacity:1;" d="M 14.734375 3.546875 C 15.152344 3.546875 15.566406 3.546875 15.984375 3.546875 C 15.984375 3.691406 15.984375 3.839844 15.984375 3.984375 C 15.566406 3.984375 15.152344 3.984375 14.734375 3.984375 C 14.734375 3.839844 14.734375 3.691406 14.734375 3.546875 Z M 14.734375 3.546875 "/>
<path style=" stroke:none;fill-rule:evenodd;fill:rgb(11.764706%,86.27451%,70.196078%);fill-opacity:1;" d="M -0.015625 3.984375 C 0.402344 3.984375 0.816406 3.984375 1.234375 3.984375 C 1.234375 4.277344 1.234375 4.566406 1.234375 4.859375 C 0.816406 4.859375 0.402344 4.859375 -0.015625 4.859375 C -0.015625 4.566406 -0.015625 4.277344 -0.015625 3.984375 Z M -0.015625 3.984375 "/>
<path style=" stroke:none;fill-rule:evenodd;fill:rgb(11.764706%,86.27451%,70.196078%);fill-opacity:1;" d="M 14.734375 3.984375 C 15.152344 3.984375 15.566406 3.984375 15.984375 3.984375 C 15.984375 4.277344 15.984375 4.566406 15.984375 4.859375 C 15.566406 4.859375 15.152344 4.859375 14.734375 4.859375 C 14.734375 4.566406 14.734375 4.277344 14.734375 3.984375 Z M 14.734375 3.984375 "/>
<path style=" stroke:none;fill-rule:evenodd;fill:rgb(10.980392%,84.705882%,72.54902%);fill-opacity:1;" d="M -0.015625 4.859375 C 0.402344 4.859375 0.816406 4.859375 1.234375 4.859375 C 5.734375 4.859375 10.234375 4.859375 14.734375 4.859375 C 15.152344 4.859375 15.566406 4.859375 15.984375 4.859375 C 15.984375 5.109375 15.984375 5.359375 15.984375 5.609375 C 10.652344 5.609375 5.316406 5.609375 -0.015625 5.609375 C -0.015625 5.359375 -0.015625 5.109375 -0.015625 4.859375 Z M -0.015625 4.859375 "/>
<path style=" stroke:none;fill-rule:evenodd;fill:rgb(10.196078%,83.529412%,73.72549%);fill-opacity:1;" d="M -0.015625 5.609375 C 5.316406 5.609375 10.652344 5.609375 15.984375 5.609375 C 15.984375 5.722656 15.984375 5.839844 15.984375 5.953125 C 10.652344 5.953125 5.316406 5.953125 -0.015625 5.953125 C -0.015625 5.839844 -0.015625 5.722656 -0.015625 5.609375 Z M -0.015625 5.609375 "/>
<path style=" stroke:none;fill-rule:evenodd;fill:rgb(9.803922%,82.745098%,74.509804%);fill-opacity:1;" d="M -0.015625 5.953125 C 5.316406 5.953125 10.652344 5.953125 15.984375 5.953125 C 15.984375 6.152344 15.984375 6.347656 15.984375 6.546875 C 15.566406 6.546875 15.152344 6.546875 14.734375 6.546875 C 14.734375 6.402344 14.734375 6.253906 14.734375 6.109375 C 10.234375 6.109375 5.734375 6.109375 1.234375 6.109375 C 1.234375 6.253906 1.234375 6.402344 1.234375 6.546875 C 0.816406 6.546875 0.402344 6.546875 -0.015625 6.546875 C -0.015625 6.347656 -0.015625 6.152344 -0.015625 5.953125 Z M -0.015625 5.953125 "/>
<path style=" stroke:none;fill-rule:evenodd;fill:rgb(9.411765%,81.176471%,76.470588%);fill-opacity:1;" d="M -0.015625 6.546875 C 0.402344 6.546875 0.816406 6.546875 1.234375 6.546875 C 1.234375 6.722656 1.234375 6.902344 1.234375 7.078125 C 0.816406 7.078125 0.402344 7.078125 -0.015625 7.078125 C -0.015625 6.902344 -0.015625 6.722656 -0.015625 6.546875 Z M -0.015625 6.546875 "/>
<path style=" stroke:none;fill-rule:evenodd;fill:rgb(9.411765%,81.176471%,76.470588%);fill-opacity:1;" d="M 14.734375 6.546875 C 15.152344 6.546875 15.566406 6.546875 15.984375 6.546875 C 15.984375 6.722656 15.984375 6.902344 15.984375 7.078125 C 15.566406 7.078125 15.152344 7.078125 14.734375 7.078125 C 14.734375 6.902344 14.734375 6.722656 14.734375 6.546875 Z M 14.734375 6.546875 "/>
<use xlink:href="#surface23" mask="url(#mask6)"/>
<path style=" stroke:none;fill-rule:evenodd;fill:rgb(8.627451%,80.392157%,77.647059%);fill-opacity:1;" d="M -0.015625 7.078125 C 0.402344 7.078125 0.816406 7.078125 1.234375 7.078125 C 1.234375 7.222656 1.234375 7.371094 1.234375 7.515625 C 0.816406 7.515625 0.402344 7.515625 -0.015625 7.515625 C -0.015625 7.371094 -0.015625 7.222656 -0.015625 7.078125 Z M -0.015625 7.078125 "/>
<path style=" stroke:none;fill-rule:evenodd;fill:rgb(8.627451%,80.392157%,77.647059%);fill-opacity:1;" d="M 14.734375 7.078125 C 15.152344 7.078125 15.566406 7.078125 15.984375 7.078125 C 15.984375 7.222656 15.984375 7.371094 15.984375 7.515625 C 15.566406 7.515625 15.152344 7.515625 14.734375 7.515625 C 14.734375 7.371094 14.734375 7.222656 14.734375 7.078125 Z M 14.734375 7.078125 "/>
<path style=" stroke:none;fill-rule:evenodd;fill:rgb(8.627451%,80%,77.647059%);fill-opacity:1;" d="M 3.609375 7.515625 C 3.191406 7.515625 2.777344 7.515625 2.359375 7.515625 C 2.359375 7.421875 2.359375 7.328125 2.359375 7.234375 C 2.777344 7.234375 3.191406 7.234375 3.609375 7.234375 C 3.609375 7.328125 3.609375 7.421875 3.609375 7.515625 Z M 3.609375 7.515625 "/>
<path style=" stroke:none;fill-rule:evenodd;fill:rgb(8.627451%,80%,77.647059%);fill-opacity:1;" d="M 6.109375 7.515625 C 5.691406 7.515625 5.277344 7.515625 4.859375 7.515625 C 4.859375 7.421875 4.859375 7.328125 4.859375 7.234375 C 5.277344 7.234375 5.691406 7.234375 6.109375 7.234375 C 6.109375 7.328125 6.109375 7.421875 6.109375 7.515625 Z M 6.109375 7.515625 "/>
<path style=" stroke:none;fill-rule:evenodd;fill:rgb(8.627451%,80%,77.647059%);fill-opacity:1;" d="M 8.609375 7.515625 C 8.191406 7.515625 7.777344 7.515625 7.359375 7.515625 C 7.359375 7.421875 7.359375 7.328125 7.359375 7.234375 C 7.777344 7.234375 8.191406 7.234375 8.609375 7.234375 C 8.609375 7.328125 8.609375 7.421875 8.609375 7.515625 Z M 8.609375 7.515625 "/>
<path style=" stroke:none;fill-rule:evenodd;fill:rgb(8.235294%,78.823529%,79.215686%);fill-opacity:1;" d="M -0.015625 7.515625 C 0.402344 7.515625 0.816406 7.515625 1.234375 7.515625 C 1.234375 7.796875 1.234375 8.078125 1.234375 8.359375 C 0.816406 8.359375 0.402344 8.359375 -0.015625 8.359375 C -0.015625 8.078125 -0.015625 7.796875 -0.015625 7.515625 Z M -0.015625 7.515625 "/>
<path style=" stroke:none;fill-rule:evenodd;fill:rgb(8.235294%,78.823529%,79.215686%);fill-opacity:1;" d="M 2.359375 7.515625 C 2.777344 7.515625 3.191406 7.515625 3.609375 7.515625 C 3.609375 7.839844 3.609375 8.160156 3.609375 8.484375 C 3.191406 8.484375 2.777344 8.484375 2.359375 8.484375 C 2.359375 8.160156 2.359375 7.839844 2.359375 7.515625 Z M 2.359375 7.515625 "/>
<path style=" stroke:none;fill-rule:evenodd;fill:rgb(8.235294%,78.823529%,79.215686%);fill-opacity:1;" d="M 4.859375 7.515625 C 5.277344 7.515625 5.691406 7.515625 6.109375 7.515625 C 6.109375 7.839844 6.109375 8.160156 6.109375 8.484375 C 5.691406 8.484375 5.277344 8.484375 4.859375 8.484375 C 4.859375 8.160156 4.859375 7.839844 4.859375 7.515625 Z M 4.859375 7.515625 "/>
<path style=" stroke:none;fill-rule:evenodd;fill:rgb(8.235294%,78.823529%,79.215686%);fill-opacity:1;" d="M 7.359375 7.515625 C 7.777344 7.515625 8.191406 7.515625 8.609375 7.515625 C 8.609375 7.839844 8.609375 8.160156 8.609375 8.484375 C 8.191406 8.484375 7.777344 8.484375 7.359375 8.484375 C 7.359375 8.160156 7.359375 7.839844 7.359375 7.515625 Z M 7.359375 7.515625 "/>
<use xlink:href="#surface26" mask="url(#mask7)"/>
<path style=" stroke:none;fill-rule:evenodd;fill:rgb(8.235294%,78.823529%,79.215686%);fill-opacity:1;" d="M 14.734375 7.515625 C 15.152344 7.515625 15.566406 7.515625 15.984375 7.515625 C 15.984375 7.796875 15.984375 8.078125 15.984375 8.359375 C 15.566406 8.359375 15.152344 8.359375 14.734375 8.359375 C 14.734375 8.078125 14.734375 7.796875 14.734375 7.515625 Z M 14.734375 7.515625 "/>
<path style=" stroke:none;fill-rule:evenodd;fill:rgb(7.45098%,77.254902%,80.784314%);fill-opacity:1;" d="M -0.015625 8.359375 C 0.402344 8.359375 0.816406 8.359375 1.234375 8.359375 C 1.234375 8.546875 1.234375 8.734375 1.234375 8.921875 C 0.816406 8.921875 0.402344 8.921875 -0.015625 8.921875 C -0.015625 8.734375 -0.015625 8.546875 -0.015625 8.359375 Z M -0.015625 8.359375 "/>
<use xlink:href="#surface29" mask="url(#mask8)"/>
<path style=" stroke:none;fill-rule:evenodd;fill:rgb(7.45098%,77.254902%,80.784314%);fill-opacity:1;" d="M 14.734375 8.359375 C 15.152344 8.359375 15.566406 8.359375 15.984375 8.359375 C 15.984375 8.546875 15.984375 8.734375 15.984375 8.921875 C 15.566406 8.921875 15.152344 8.921875 14.734375 8.921875 C 14.734375 8.734375 14.734375 8.546875 14.734375 8.359375 Z M 14.734375 8.359375 "/>
<path style=" stroke:none;fill-rule:evenodd;fill:rgb(6.666667%,76.078431%,82.352941%);fill-opacity:1;" d="M -0.015625 8.921875 C 0.402344 8.921875 0.816406 8.921875 1.234375 8.921875 C 1.234375 9.140625 1.234375 9.359375 1.234375 9.578125 C 0.816406 9.578125 0.402344 9.578125 -0.015625 9.578125 C -0.015625 9.359375 -0.015625 9.140625 -0.015625 8.921875 Z M -0.015625 8.921875 "/>
<use xlink:href="#surface32" mask="url(#mask9)"/>
<path style=" stroke:none;fill-rule:evenodd;fill:rgb(6.666667%,76.078431%,82.352941%);fill-opacity:1;" d="M 14.734375 8.921875 C 15.152344 8.921875 15.566406 8.921875 15.984375 8.921875 C 15.984375 9.140625 15.984375 9.359375 15.984375 9.578125 C 15.566406 9.578125 15.152344 9.578125 14.734375 9.578125 C 14.734375 9.359375 14.734375 9.140625 14.734375 8.921875 Z M 14.734375 8.921875 "/>
<path style=" stroke:none;fill-rule:evenodd;fill:rgb(5.882353%,74.509804%,84.313725%);fill-opacity:1;" d="M -0.015625 9.578125 C 0.402344 9.578125 0.816406 9.578125 1.234375 9.578125 C 1.234375 9.890625 1.234375 10.203125 1.234375 10.515625 C 0.816406 10.515625 0.402344 10.515625 -0.015625 10.515625 C -0.015625 10.203125 -0.015625 9.890625 -0.015625 9.578125 Z M -0.015625 9.578125 "/>
<use xlink:href="#surface35" mask="url(#mask10)"/>
<path style=" stroke:none;fill-rule:evenodd;fill:rgb(5.882353%,74.509804%,84.313725%);fill-opacity:1;" d="M 14.734375 9.578125 C 15.152344 9.578125 15.566406 9.578125 15.984375 9.578125 C 15.984375 9.890625 15.984375 10.203125 15.984375 10.515625 C 15.566406 10.515625 15.152344 10.515625 14.734375 10.515625 C 14.734375 10.203125 14.734375 9.890625 14.734375 9.578125 Z M 14.734375 9.578125 "/>
<path style=" stroke:none;fill-rule:evenodd;fill:rgb(5.882353%,74.117647%,84.705882%);fill-opacity:1;" d="M 3.609375 10.515625 C 3.191406 10.515625 2.777344 10.515625 2.359375 10.515625 C 2.359375 10.253906 2.359375 9.996094 2.359375 9.734375 C 2.777344 9.734375 3.191406 9.734375 3.609375 9.734375 C 3.609375 9.996094 3.609375 10.253906 3.609375 10.515625 Z M 3.609375 10.515625 "/>
<path style=" stroke:none;fill-rule:evenodd;fill:rgb(5.882353%,74.117647%,84.705882%);fill-opacity:1;" d="M 6.109375 10.515625 C 5.691406 10.515625 5.277344 10.515625 4.859375 10.515625 C 4.859375 10.253906 4.859375 9.996094 4.859375 9.734375 C 5.277344 9.734375 5.691406 9.734375 6.109375 9.734375 C 6.109375 9.996094 6.109375 10.253906 6.109375 10.515625 Z M 6.109375 10.515625 "/>
<path style=" stroke:none;fill-rule:evenodd;fill:rgb(5.882353%,74.117647%,84.705882%);fill-opacity:1;" d="M 8.609375 10.515625 C 8.191406 10.515625 7.777344 10.515625 7.359375 10.515625 C 7.359375 10.253906 7.359375 9.996094 7.359375 9.734375 C 7.777344 9.734375 8.191406 9.734375 8.609375 9.734375 C 8.609375 9.996094 8.609375 10.253906 8.609375 10.515625 Z M 8.609375 10.515625 "/>
<path style=" stroke:none;fill-rule:evenodd;fill:rgb(5.098039%,72.54902%,86.27451%);fill-opacity:1;" d="M -0.015625 10.515625 C 0.402344 10.515625 0.816406 10.515625 1.234375 10.515625 C 1.234375 10.753906 1.234375 10.996094 1.234375 11.234375 C 0.816406 11.234375 0.402344 11.234375 -0.015625 11.234375 C -0.015625 10.996094 -0.015625 10.753906 -0.015625 10.515625 Z M -0.015625 10.515625 "/>
<path style=" stroke:none;fill-rule:evenodd;fill:rgb(5.098039%,72.941176%,86.27451%);fill-opacity:1;" d="M 2.359375 10.515625 C 2.777344 10.515625 3.191406 10.515625 3.609375 10.515625 C 3.609375 10.671875 3.609375 10.828125 3.609375 10.984375 C 3.191406 10.984375 2.777344 10.984375 2.359375 10.984375 C 2.359375 10.828125 2.359375 10.671875 2.359375 10.515625 Z M 2.359375 10.515625 "/>
<path style=" stroke:none;fill-rule:evenodd;fill:rgb(5.098039%,72.941176%,86.27451%);fill-opacity:1;" d="M 4.859375 10.515625 C 5.277344 10.515625 5.691406 10.515625 6.109375 10.515625 C 6.109375 10.671875 6.109375 10.828125 6.109375 10.984375 C 5.691406 10.984375 5.277344 10.984375 4.859375 10.984375 C 4.859375 10.828125 4.859375 10.671875 4.859375 10.515625 Z M 4.859375 10.515625 "/>
<path style=" stroke:none;fill-rule:evenodd;fill:rgb(5.098039%,72.941176%,86.27451%);fill-opacity:1;" d="M 7.359375 10.515625 C 7.777344 10.515625 8.191406 10.515625 8.609375 10.515625 C 8.609375 10.671875 8.609375 10.828125 8.609375 10.984375 C 8.191406 10.984375 7.777344 10.984375 7.359375 10.984375 C 7.359375 10.828125 7.359375 10.671875 7.359375 10.515625 Z M 7.359375 10.515625 "/>
<use xlink:href="#surface38" mask="url(#mask11)"/>
<use xlink:href="#surface41" mask="url(#mask12)"/>
<path style=" stroke:none;fill-rule:evenodd;fill:rgb(4.313725%,71.372549%,87.843137%);fill-opacity:1;" d="M -0.015625 11.234375 C 0.402344 11.234375 0.816406 11.234375 1.234375 11.234375 C 1.234375 11.378906 1.234375 11.527344 1.234375 11.671875 C 0.816406 11.671875 0.402344 11.671875 -0.015625 11.671875 C -0.015625 11.527344 -0.015625 11.378906 -0.015625 11.234375 Z M -0.015625 11.234375 "/>
<path style=" stroke:none;fill-rule:evenodd;fill:rgb(3.921569%,69.803922%,89.411765%);fill-opacity:1;" d="M -0.015625 11.671875 C 0.402344 11.671875 0.816406 11.671875 1.234375 11.671875 C 1.234375 11.972656 1.234375 12.277344 1.234375 12.578125 C 0.816406 12.578125 0.402344 12.578125 -0.015625 12.578125 C -0.015625 12.277344 -0.015625 11.972656 -0.015625 11.671875 Z M -0.015625 11.671875 "/>
<use xlink:href="#surface44" mask="url(#mask13)"/>
<path style=" stroke:none;fill-rule:evenodd;fill:rgb(3.529412%,69.411765%,90.196078%);fill-opacity:1;" d="M 3.609375 12.578125 C 3.191406 12.578125 2.777344 12.578125 2.359375 12.578125 C 2.359375 12.464844 2.359375 12.347656 2.359375 12.234375 C 2.777344 12.234375 3.191406 12.234375 3.609375 12.234375 C 3.609375 12.347656 3.609375 12.464844 3.609375 12.578125 Z M 3.609375 12.578125 "/>
<path style=" stroke:none;fill-rule:evenodd;fill:rgb(3.529412%,69.411765%,90.196078%);fill-opacity:1;" d="M 6.109375 12.578125 C 5.691406 12.578125 5.277344 12.578125 4.859375 12.578125 C 4.859375 12.464844 4.859375 12.347656 4.859375 12.234375 C 5.277344 12.234375 5.691406 12.234375 6.109375 12.234375 C 6.109375 12.347656 6.109375 12.464844 6.109375 12.578125 Z M 6.109375 12.578125 "/>
<path style=" stroke:none;fill-rule:evenodd;fill:rgb(3.529412%,69.411765%,90.196078%);fill-opacity:1;" d="M 8.609375 12.578125 C 8.191406 12.578125 7.777344 12.578125 7.359375 12.578125 C 7.359375 12.464844 7.359375 12.347656 7.359375 12.234375 C 7.777344 12.234375 8.191406 12.234375 8.609375 12.234375 C 8.609375 12.347656 8.609375 12.464844 8.609375 12.578125 Z M 8.609375 12.578125 "/>
<path style=" stroke:none;fill-rule:evenodd;fill:rgb(3.137255%,68.627451%,90.980392%);fill-opacity:1;" d="M -0.015625 12.578125 C 0.402344 12.578125 0.816406 12.578125 1.234375 12.578125 C 1.234375 12.703125 1.234375 12.828125 1.234375 12.953125 C 0.816406 12.953125 0.402344 12.953125 -0.015625 12.953125 C -0.015625 12.828125 -0.015625 12.703125 -0.015625 12.578125 Z M -0.015625 12.578125 "/>
<path style=" stroke:none;fill-rule:evenodd;fill:rgb(3.137255%,68.627451%,90.980392%);fill-opacity:1;" d="M 2.359375 12.578125 C 2.777344 12.578125 3.191406 12.578125 3.609375 12.578125 C 3.609375 12.703125 3.609375 12.828125 3.609375 12.953125 C 3.191406 12.953125 2.777344 12.953125 2.359375 12.953125 C 2.359375 12.828125 2.359375 12.703125 2.359375 12.578125 Z M 2.359375 12.578125 "/>
<path style=" stroke:none;fill-rule:evenodd;fill:rgb(3.137255%,68.627451%,90.980392%);fill-opacity:1;" d="M 4.859375 12.578125 C 5.277344 12.578125 5.691406 12.578125 6.109375 12.578125 C 6.109375 12.703125 6.109375 12.828125 6.109375 12.953125 C 5.691406 12.953125 5.277344 12.953125 4.859375 12.953125 C 4.859375 12.828125 4.859375 12.703125 4.859375 12.578125 Z M 4.859375 12.578125 "/>
<path style=" stroke:none;fill-rule:evenodd;fill:rgb(3.137255%,68.627451%,90.980392%);fill-opacity:1;" d="M 7.359375 12.578125 C 7.777344 12.578125 8.191406 12.578125 8.609375 12.578125 C 8.609375 12.703125 8.609375 12.828125 8.609375 12.953125 C 8.191406 12.953125 7.777344 12.953125 7.359375 12.953125 C 7.359375 12.828125 7.359375 12.703125 7.359375 12.578125 Z M 7.359375 12.578125 "/>
<use xlink:href="#surface47" mask="url(#mask14)"/>
<use xlink:href="#surface50" mask="url(#mask15)"/>
<path style=" stroke:none;fill-rule:evenodd;fill:rgb(2.745098%,67.843137%,92.156863%);fill-opacity:1;" d="M -0.015625 12.953125 C 0.402344 12.953125 0.816406 12.953125 1.234375 12.953125 C 1.234375 13.140625 1.234375 13.328125 1.234375 13.515625 C 0.816406 13.515625 0.402344 13.515625 -0.015625 13.515625 C -0.015625 13.328125 -0.015625 13.140625 -0.015625 12.953125 Z M -0.015625 12.953125 "/>
<path style=" stroke:none;fill-rule:evenodd;fill:rgb(2.745098%,67.843137%,92.156863%);fill-opacity:1;" d="M 2.359375 12.953125 C 2.777344 12.953125 3.191406 12.953125 3.609375 12.953125 C 3.609375 13.128906 3.609375 13.308594 3.609375 13.484375 C 3.191406 13.484375 2.777344 13.484375 2.359375 13.484375 C 2.359375 13.308594 2.359375 13.128906 2.359375 12.953125 Z M 2.359375 12.953125 "/>
<path style=" stroke:none;fill-rule:evenodd;fill:rgb(2.745098%,67.843137%,92.156863%);fill-opacity:1;" d="M 4.859375 12.953125 C 5.277344 12.953125 5.691406 12.953125 6.109375 12.953125 C 6.109375 13.128906 6.109375 13.308594 6.109375 13.484375 C 5.691406 13.484375 5.277344 13.484375 4.859375 13.484375 C 4.859375 13.308594 4.859375 13.128906 4.859375 12.953125 Z M 4.859375 12.953125 "/>
<path style=" stroke:none;fill-rule:evenodd;fill:rgb(2.745098%,67.843137%,92.156863%);fill-opacity:1;" d="M 7.359375 12.953125 C 7.777344 12.953125 8.191406 12.953125 8.609375 12.953125 C 8.609375 13.128906 8.609375 13.308594 8.609375 13.484375 C 8.191406 13.484375 7.777344 13.484375 7.359375 13.484375 C 7.359375 13.308594 7.359375 13.128906 7.359375 12.953125 Z M 7.359375 12.953125 "/>
<path style=" stroke:none;fill-rule:evenodd;fill:rgb(2.745098%,67.843137%,92.156863%);fill-opacity:1;" d="M 10.984375 12.953125 C 11.402344 12.953125 11.816406 12.953125 12.234375 12.953125 C 12.234375 13.140625 12.234375 13.328125 12.234375 13.515625 C 11.816406 13.515625 11.402344 13.515625 10.984375 13.515625 C 10.984375 13.328125 10.984375 13.140625 10.984375 12.953125 Z M 10.984375 12.953125 "/>
<use xlink:href="#surface53" mask="url(#mask16)"/>
<path style=" stroke:none;fill-rule:evenodd;fill:rgb(1.960784%,66.27451%,93.72549%);fill-opacity:1;" d="M -0.015625 13.515625 C 0.402344 13.515625 0.816406 13.515625 1.234375 13.515625 C 1.234375 13.691406 1.234375 13.871094 1.234375 14.046875 C 0.816406 14.046875 0.402344 14.046875 -0.015625 14.046875 C -0.015625 13.871094 -0.015625 13.691406 -0.015625 13.515625 Z M -0.015625 13.515625 "/>
<use xlink:href="#surface56" mask="url(#mask17)"/>
<use xlink:href="#surface59" mask="url(#mask18)"/>
<use xlink:href="#surface62" mask="url(#mask19)"/>
<use xlink:href="#surface65" mask="url(#mask20)"/>
<use xlink:href="#surface68" mask="url(#mask21)"/>
<use xlink:href="#surface71" mask="url(#mask22)"/>
</g>
</svg>
